<svg width="16.000000" height="16.000000" viewBox="0 0 16 16" fill="none" xmlns="http://www.w3.org/2000/svg" xmlns:xlink="http://www.w3.org/1999/xlink">
	<desc>
			Created with Pixso.
	</desc>
	<defs>
		<clipPath id="clip2837_9449">
			<rect id="delete" rx="0.000000" width="15.000000" height="15.000000" transform="translate(0.500000 0.500000)" fill="white" fill-opacity="0"/>
		</clipPath>
	</defs>
	<g clip-path="url(#clip2837_9449)">
		<path id="Vector (Stroke)" d="M4.83 2.5C4.83 1.57 5.57 0.83 6.5 0.83L9.5 0.83C10.41 0.83 11.16 1.57 11.16 2.5L11.16 2.83L14.5 2.83C14.86 2.83 15.16 3.13 15.16 3.5C15.16 3.86 14.86 4.16 14.5 4.16L13.66 4.16L13.66 12.5C13.66 13.97 12.47 15.16 11 15.16L5 15.16C3.52 15.16 2.33 13.97 2.33 12.5L2.33 4.16L1.5 4.16C1.12 4.16 0.83 3.86 0.83 3.5C0.83 3.13 1.12 2.83 1.5 2.83L4.83 2.83L4.83 2.5ZM6.16 2.83L9.83 2.83L9.83 2.5C9.83 2.31 9.68 2.16 9.5 2.16L6.5 2.16C6.31 2.16 6.16 2.31 6.16 2.5L6.16 2.83ZM3.66 4.16L3.66 12.5C3.66 13.23 4.26 13.83 5 13.83L11 13.83C11.73 13.83 12.33 13.23 12.33 12.5L12.33 4.16L3.66 4.16ZM8 5.33C8.36 5.33 8.66 5.63 8.66 6L8.66 12C8.66 12.36 8.36 12.66 8 12.66C7.62 12.66 7.33 12.36 7.33 12L7.33 6C7.33 5.63 7.62 5.33 8 5.33Z" fill="#787A80" fill-opacity="1.000000" fill-rule="evenodd"/>
	</g>
</svg>
