<svg width="24.000000" height="24.000000" viewBox="0 0 24 24" fill="none" xmlns="http://www.w3.org/2000/svg" xmlns:xlink="http://www.w3.org/1999/xlink">
	<desc>
			Created with Pixso.
	</desc>
	<defs/>
	<path id="Vector (Stroke)" d="M8.21 18.95C8.74 19.11 9.3 18.81 9.45 18.28L10.18 15.81C11.38 16.06 12.61 16.06 13.81 15.81L14.54 18.28C14.69 18.81 15.25 19.11 15.78 18.95C16.31 18.8 16.61 18.24 16.45 17.71L15.72 15.2C16.7 14.77 17.66 14.17 18.56 13.41L20.26 15.27C20.63 15.68 21.26 15.71 21.67 15.33C22.08 14.96 22.11 14.33 21.73 13.92L19.99 12.01C20.65 11.28 21.27 10.45 21.84 9.52C22.14 9.06 21.99 8.44 21.53 8.15C21.06 7.85 20.44 8 20.15 8.47C19.45 9.58 18.7 10.51 17.92 11.28C16.73 12.46 15.46 13.24 14.19 13.64C12.74 14.11 11.25 14.11 9.8 13.64C8.53 13.24 7.26 12.46 6.07 11.28C5.29 10.51 4.54 9.58 3.84 8.47C3.55 8 2.93 7.85 2.46 8.15C2 8.44 1.85 9.06 2.15 9.52C2.72 10.45 3.34 11.28 4 12.01L2.26 13.92C1.88 14.33 1.91 14.96 2.32 15.33C2.73 15.71 3.36 15.68 3.73 15.27L5.43 13.41C6.33 14.17 7.29 14.77 8.27 15.2L7.54 17.71C7.38 18.24 7.68 18.8 8.21 18.95Z" fill="#1E212C" fill-opacity="1.000000" fill-rule="evenodd"/>
</svg>
