<svg width="14.000000" height="14.000000" viewBox="0 0 14 14" fill="none" xmlns="http://www.w3.org/2000/svg" xmlns:xlink="http://www.w3.org/1999/xlink">
	<desc>
			Created with Pixso.
	</desc>
	<defs/>
	<path id="Star (Stroke)" d="M5.93 1.28C6.33 0.34 7.66 0.34 8.06 1.28L9.29 4.11L12.36 4.4C13.37 4.5 13.78 5.76 13.02 6.43L10.71 8.47L11.38 11.48C11.6 12.47 10.53 13.25 9.65 12.73L7 11.17L4.34 12.73C3.47 13.25 2.39 12.47 2.61 11.48L3.28 8.47L0.97 6.43C0.21 5.76 0.62 4.5 1.63 4.4L4.7 4.11L5.93 1.28ZM8.22 4.57L7 1.74L5.77 4.57C5.6 4.96 5.23 5.22 4.81 5.26L1.75 5.56L4.05 7.6C4.37 7.88 4.51 8.31 4.42 8.72L3.75 11.73L6.4 10.16C6.77 9.95 7.22 9.95 7.59 10.16L10.24 11.73L9.57 8.72C9.48 8.31 9.62 7.88 9.94 7.6L12.25 5.56L9.18 5.26C8.76 5.22 8.39 4.96 8.22 4.57Z" fill="#B3B7BC" fill-opacity="1.000000" fill-rule="evenodd"/>
</svg>
