<svg width="21.500000" height="18.500000" viewBox="0 0 21.5 18.5" fill="none" xmlns="http://www.w3.org/2000/svg" xmlns:xlink="http://www.w3.org/1999/xlink">
	<desc>
			Created with Pixso.
	</desc>
	<defs/>
	<path d="M10.75 2C7.45 2 4.34 3.26 1.64 5.51C1.21 5.87 0.58 5.81 0.23 5.39C-0.13 4.96 -0.07 4.33 0.35 3.98C3.36 1.47 6.92 0 10.75 0C14.57 0 18.13 1.47 21.14 3.98C21.56 4.33 21.62 4.96 21.26 5.39C20.91 5.81 20.28 5.87 19.85 5.51C17.15 3.26 14.04 2 10.75 2ZM10.37 3.75C7.46 3.75 4.89 5.16 3.1 6.68C2.19 7.45 1.45 8.26 0.92 9C0.66 9.36 0.44 9.72 0.28 10.05C0.14 10.35 0 10.73 0 11.12C0 11.51 0.14 11.89 0.28 12.19C0.44 12.52 0.66 12.88 0.92 13.25C1.45 13.98 2.19 14.79 3.1 15.56C4.89 17.08 7.46 18.5 10.37 18.5C13.28 18.5 15.85 17.08 17.64 15.56C18.55 14.79 19.29 13.98 19.82 13.25C20.08 12.88 20.3 12.52 20.46 12.19C20.6 11.89 20.75 11.51 20.75 11.12C20.75 10.73 20.6 10.35 20.46 10.05C20.3 9.72 20.08 9.36 19.82 9C19.29 8.26 18.55 7.45 17.64 6.68C15.85 5.16 13.28 3.75 10.37 3.75ZM10.37 5.75C8.64 5.75 7.25 7.14 7.25 8.87C7.25 10.6 8.64 12 10.37 12C12.1 12 13.5 10.6 13.5 8.87C13.5 7.14 12.1 5.75 10.37 5.75ZM2.09 11.33C2.04 11.22 2.01 11.15 2 11.12C2.01 11.09 2.04 11.02 2.09 10.91C2.18 10.71 2.33 10.46 2.54 10.16C2.97 9.58 3.6 8.88 4.39 8.21C4.72 7.93 5.08 7.66 5.46 7.4C5.32 7.87 5.25 8.36 5.25 8.87C5.25 11.7 7.54 14 10.37 14C13.2 14 15.5 11.7 15.5 8.87C15.5 8.36 15.42 7.87 15.28 7.4C15.66 7.66 16.02 7.93 16.35 8.21C17.14 8.88 17.77 9.58 18.2 10.16C18.41 10.46 18.56 10.71 18.65 10.91C18.7 11.02 18.73 11.09 18.74 11.12C18.73 11.15 18.7 11.22 18.65 11.33C18.56 11.53 18.41 11.78 18.2 12.08C17.77 12.66 17.14 13.36 16.35 14.03C14.76 15.37 12.64 16.5 10.37 16.5C8.1 16.5 5.98 15.37 4.39 14.03C3.6 13.36 2.97 12.66 2.54 12.08C2.33 11.78 2.18 11.53 2.09 11.33Z" fill="#1E212C" fill-opacity="1.000000" fill-rule="evenodd"/>
</svg>
